<svg xmlns="http://www.w3.org/2000/svg" width="158" height="233">
 <g>
  <g id="svg_15">
   <g id="svg_12">
    <path fill="#4C261D" stroke="#000" stroke-width="0" opacity="NaN" d="m68.44846,126.906c-2,-7 -21.33333,-24 -21.33334,-24.00001c0,0.00001 3.66667,-3.66666 3.66667,-3.66667c0,0.00001 16,14.33334 19.33334,18.66668" id="svg_10"/>
    <g id="svg_2">
     <path id="svg_9" d="m52.81668,66.66569l33.33333,0l0,156.25l-33.33333,0c2.63889,-25.34722 23.36111,-113.77777 12.25,-137.875l-12.25,-18.375z" opacity="undefined" stroke="#000" fill="#4C261D" stroke-width="0"/>
     <path id="svg_1" d="m107.31668,66.66569l-29.16667,0l0,156.25l29.16667,0c-2.30903,-25.34722 -22.19098,-30.77777 -7.46875,-144.875l7.46875,-11.375z" opacity="undefined" fill="#4C261D" stroke-width="0" stroke="#000"/>
    </g>
    <ellipse fill="#0C372C" cx="38.08412" cy="73.35174" id="svg_3" rx="38.04651" ry="35.82558" stroke-width="0" stroke="#000"/>
    <ellipse fill="#0C372C" cx="80.87482" cy="65.90988" id="svg_4" rx="38.04651" ry="36.75581" stroke-width="0" stroke="#000"/>
    <ellipse fill="#0C372C" cx="69.71203" cy="36.14244" id="svg_6" rx="38.04651" ry="35.82558" stroke-width="0" stroke="#000"/>
    <ellipse fill="#0C372C" cx="98.54924" cy="47.77034" id="svg_7" rx="38.04651" ry="35.82558" stroke-width="0" stroke="#000"/>
    <path fill="#4C261D" stroke-width="0" opacity="NaN" d="m92.29867,136.906c3.42029,-9.53012 36.48311,-32.67469 36.48311,-32.67471c0,0.00001 -6.27054,-4.99194 -6.27052,-4.99196c-0.00002,0.00001 -27.36234,19.51406 -33.06282,25.41365" id="svg_11" stroke="#000"/>
    <ellipse fill="#0C372C" cx="119.94459" cy="78.46802" id="svg_5" rx="38.04651" ry="35.82558" stroke-width="0" stroke="#000"/>
   </g>
  </g>
 </g>
</svg>